<svg xmlns="http://www.w3.org/2000/svg" width="145.193" height="35" viewBox="0 0 145.193 35">
  <g id="Group_99" data-name="Group 99" transform="translate(-1029.176 -370.192)">
    <g id="Group_97" data-name="Group 97" transform="translate(1089.369 372.142)">
      <text id="winnow" transform="translate(0 21)" fill="#3c1053" font-size="23" font-family="AllRoundGothic-Book, All Round Gothic"><tspan x="0" y="0">winnow</tspan></text>
    </g>
    <g id="Group_98" data-name="Group 98" transform="translate(1029.176 370.192)">
      <path id="Path_6" data-name="Path 6" d="M1138.615,370.659a1.6,1.6,0,0,0-.073,2.182,22.539,22.539,0,0,1-.016,29.693,1.6,1.6,0,0,0,.071,2.183l.008.008a1.6,1.6,0,0,0,2.339-.083,25.749,25.749,0,0,0,.01-33.9,1.6,1.6,0,0,0-2.34-.084Z" transform="translate(-1095.821 -370.192)" fill="#3c1053"/>
      <path id="Path_7" data-name="Path 7" d="M1130.475,394.845a16.026,16.026,0,0,1-3.735,10.308,1.612,1.612,0,0,0,.1,2.172h0a1.615,1.615,0,0,0,2.379-.1,19.324,19.324,0,0,0,.021-24.734,1.614,1.614,0,0,0-2.38-.1h0a1.612,1.612,0,0,0-.1,2.17A16.025,16.025,0,0,1,1130.475,394.845Z" transform="translate(-1088.626 -377.362)" fill="#3c1053"/>
      <circle id="Ellipse_6" data-name="Ellipse 6" cx="1.608" cy="1.608" r="1.608" transform="translate(0 15.898)" fill="#3c1053"/>
      <circle id="Ellipse_7" data-name="Ellipse 7" cx="1.336" cy="1.336" r="1.336" transform="translate(6.722 16.191)" fill="#3c1053"/>
      <circle id="Ellipse_8" data-name="Ellipse 8" cx="1.336" cy="1.336" r="1.336" transform="translate(7.596 10.545)" fill="#3c1053"/>
      <circle id="Ellipse_9" data-name="Ellipse 9" cx="1.336" cy="1.336" r="1.336" transform="translate(7.596 21.837)" fill="#3c1053"/>
      <path id="Path_8" data-name="Path 8" d="M1083.317,394.183h0a1.6,1.6,0,0,0-.158,2.084,9.685,9.685,0,0,1,1.34,9.123.613.613,0,0,1-1.008.221l-7.088-7.088a1.427,1.427,0,0,0-2.017,0l-7.083,7.068a.612.612,0,0,1-1.008-.224,9.683,9.683,0,0,1,1.375-9.087,1.6,1.6,0,0,0-.155-2.088h0a1.6,1.6,0,0,0-2.406.156l-.048.064a1.236,1.236,0,0,0,0,1.431,1.112,1.112,0,0,1-.774,1.719l-.016,0a1.5,1.5,0,0,0-1.282,1.078q-.126.454-.219.921a1.588,1.588,0,0,0,.672,1.632l.021.014a1.046,1.046,0,0,1,.412.549,1.119,1.119,0,0,1-.555,1.34l-.033.014a.911.911,0,0,0-.612.985q.1.626.255,1.232a1.809,1.809,0,0,0,1.492,1.324l.018,0a1.113,1.113,0,0,1,.725,1.722,1.319,1.319,0,0,0,.016,1.555l.035.045a1.429,1.429,0,0,0,2.141.135l7.6-7.62a.613.613,0,0,1,.866,0l7.623,7.618a1.43,1.43,0,0,0,2.141-.14,12.882,12.882,0,0,0,.142-15.628A1.6,1.6,0,0,0,1083.317,394.183Z" transform="translate(-1049.66 -384.578)" fill="#3c1053"/>
      <circle id="Ellipse_10" data-name="Ellipse 10" cx="1.608" cy="1.608" r="1.608" transform="translate(0.58 10.605)" fill="#3c1053"/>
      <circle id="Ellipse_11" data-name="Ellipse 11" cx="1.608" cy="1.608" r="1.608" transform="translate(2.481 5.313)" fill="#3c1053"/>
      <circle id="Ellipse_12" data-name="Ellipse 12" cx="1.608" cy="1.608" r="1.608" transform="translate(0.58 21.19)" fill="#3c1053"/>
      <circle id="Ellipse_13" data-name="Ellipse 13" cx="1.608" cy="1.608" r="1.608" transform="translate(2.481 26.483)" fill="#3c1053"/>
      <circle id="Ellipse_14" data-name="Ellipse 14" cx="1.608" cy="1.608" r="1.608" transform="translate(5.939 31.775)" fill="#3c1053"/>
      <circle id="Ellipse_15" data-name="Ellipse 15" cx="1.608" cy="1.608" r="1.608" transform="translate(5.939 0.02)" fill="#3c1053"/>
      <circle id="Ellipse_16" data-name="Ellipse 16" cx="1.336" cy="1.336" r="1.336" transform="translate(10.775 4.898)" fill="#3c1053"/>
      <circle id="Ellipse_17" data-name="Ellipse 17" cx="1.336" cy="1.336" r="1.336" transform="translate(10.775 27.484)" fill="#3c1053"/>
    </g>
  </g>
</svg>
