<?xml version="1.0" encoding="utf-8"?>
<!-- Generator: Adobe Illustrator 25.2.1, SVG Export Plug-In . SVG Version: 6.00 Build 0)  -->
<svg version="1.1" id="Layer_1" xmlns="http://www.w3.org/2000/svg" xmlns:xlink="http://www.w3.org/1999/xlink" x="0px" y="0px"
	 viewBox="0 0 245 103" style="enable-background:new 0 0 245 103;" xml:space="preserve">
<style type="text/css">
	.st0{fill:none;}
	.st1{fill:#691098;}
</style>
<g>
	<path class="st0" d="M56.5,18.9c0-1.1-0.8-1.9-1.9-1.9H29.1c-1.1,0-1.9,0.8-1.9,1.9v8h29.3C56.5,26.9,56.5,18.9,56.5,18.9z"/>
	<path class="st0" d="M63.2,81.1c5.2,0,9.4-4.2,9.4-9.4v-33c0-5.2-4.2-9.4-9.4-9.4h-4.3H24.8h-4.3c-5.2,0-9.4,4.2-9.4,9.4v33
		c0,5.2,4.2,9.4,9.4,9.4C20.5,81.1,63.2,81.1,63.2,81.1z M52,48c1.9,0,3.5,1.6,3.5,3.5s-1.6,3.5-3.5,3.5s-3.5-1.6-3.5-3.5
		C48.5,49.5,50.1,48,52,48z M50.8,63.6c0.6-0.6,1.5-0.6,2,0c0.6,0.6,0.6,1.5,0,2c-3,3-6.9,4.4-10.8,4.4S34,68.5,31,65.5
		c-0.6-0.6-0.6-1.5,0-2c0.6-0.6,1.5-0.6,2,0C37.9,68.4,45.9,68.4,50.8,63.6z M31.8,48c1.9,0,3.5,1.6,3.5,3.5s-1.6,3.5-3.5,3.5
		c-1.9,0-3.5-1.6-3.5-3.5C28.4,49.5,30,48,31.8,48z"/>
	<rect x="22.7" y="83.6" class="st0" width="38.5" height="4.8"/>
	<path class="st1" d="M63.6,90.8v-2.5v-2.8v-2.1C69.9,83.4,75,78.1,75,71.7v-33c0-6.5-5.3-11.8-11.8-11.8h-4.3v-8
		c0-2.4-2-4.4-4.4-4.4H29.1c-2.4,0-4.4,2-4.4,4.4v8h-4.3c-6.5,0-11.8,5.3-11.8,11.8v33c0,6.4,5.1,11.6,11.4,11.8v2.1v2.8v2.5
		L63.6,90.8L63.6,90.8z M61.1,88.5H22.7v-4.8h38.5L61.1,88.5L61.1,88.5z M27.3,18.9c0-1.1,0.8-1.9,1.9-1.9h25.5
		c1.1,0,1.9,0.8,1.9,1.9v8H27.3V18.9z M11.1,71.8v-33c0-5.2,4.2-9.4,9.4-9.4h4.3h34.1h4.3c5.2,0,9.4,4.2,9.4,9.4v33
		c0,5.2-4.2,9.4-9.4,9.4H20.6C15.4,81.1,11.1,77,11.1,71.8z"/>
	<circle class="st1" cx="31.8" cy="51.4" r="3.5"/>
	<circle class="st1" cx="52" cy="51.4" r="3.5"/>
	<path class="st1" d="M31,63.6c-0.6,0.6-0.6,1.5,0,2c3,3,6.9,4.4,10.8,4.4s7.9-1.5,10.8-4.4c0.6-0.6,0.6-1.5,0-2
		c-0.6-0.6-1.5-0.6-2,0c-4.8,4.8-12.8,4.8-17.8,0C32.5,63,31.6,63,31,63.6z"/>
</g>
<g id="Group_98" transform="translate(1029.176 370.192)">
	<path id="Path_6" class="st1" d="M-804.9-344.5c-1,1-1,2.4-0.2,3.5c11.7,13.5,11.7,33.7,0,47.1c-1,1-0.8,2.5,0.2,3.5l0,0
		c1,1,2.5,1,3.7,0l0.2-0.2c13.5-15.4,13.5-38.4,0-53.8C-802-345.4-803.6-345.6-804.9-344.5C-804.7-344.6-804.9-344.6-804.9-344.5
		L-804.9-344.5z"/>
	<path id="Path_7" class="st1" d="M-806.3-317.5c0,6-2.1,11.7-5.9,16.4c-0.8,1-0.8,2.5,0.2,3.5l0,0c1,1,2.7,1,3.7,0l0.2-0.2
		c9.5-11.4,9.5-27.9,0-39.2c-1-1.1-2.5-1.3-3.7-0.3l-0.2,0.2l0,0c-1,1-1,2.4-0.2,3.5C-808.4-329.2-806.3-323.5-806.3-317.5z"/>
	<circle id="Ellipse_6" class="st1" cx="-870.3" cy="-317.5" r="2.5"/>
	<circle id="Ellipse_7" class="st1" cx="-860" cy="-317.5" r="2.1"/>
	<circle id="Ellipse_8" class="st1" cx="-858.5" cy="-326.4" r="2.1"/>
	<circle id="Ellipse_9" class="st1" cx="-858.5" cy="-308.4" r="2.1"/>
	<path id="Path_8" class="st1" d="M-819.3-330L-819.3-330c-1,1-1,2.2-0.3,3.3c3.2,4.1,4,9.7,2.1,14.4c-0.2,0.5-0.8,0.8-1.3,0.6
		c-0.2,0-0.3-0.2-0.3-0.2l-11.3-11.3c-1-1-2.4-1-3.2,0l-11.3,11.3c-0.3,0.3-1,0.3-1.4,0c-0.2-0.2-0.2-0.2-0.2-0.3
		c-1.7-4.9-1-10.3,2.2-14.4c0.8-1,0.6-2.4-0.3-3.3l0,0c-1-1-2.5-1-3.7,0c-0.2,0.2-0.2,0.2-0.2,0.3v0.2c-0.5,0.6-0.5,1.6,0,2.2
		c0.5,0.8,0.3,1.9-0.5,2.4c-0.2,0.2-0.5,0.3-0.8,0.3l0,0c-1,0.2-1.7,0.8-2.1,1.7c-0.2,0.5-0.3,1-0.3,1.4c-0.2,1,0.2,2.1,1.1,2.5l0,0
		c0.3,0.2,0.5,0.5,0.6,0.8c0.3,0.8-0.2,1.7-1,2.1l0,0c-0.6,0.2-1.1,1-1,1.6s0.3,1.3,0.5,1.9c0.3,1.1,1.3,1.9,2.4,2.1l0,0
		c1,0.2,1.6,1.1,1.4,2.1c0,0.3-0.2,0.5-0.3,0.6c-0.5,0.8-0.5,1.7,0,2.5l0,0c0.8,1,2.2,1.1,3.2,0.5l0.2-0.2l12.1-12.1
		c0.3-0.3,1-0.3,1.4,0l12.1,12.1c1,1,2.4,1,3.2,0l0.2-0.2c5.7-7.3,5.7-17.5,0.2-24.8c-0.8-1.1-2.4-1.3-3.5-0.5
		C-819.2-330.2-819.3-330-819.3-330z"/>
	<circle id="Ellipse_10" class="st1" cx="-869.3" cy="-325.9" r="2.5"/>
	<circle id="Ellipse_11" class="st1" cx="-866.3" cy="-334.3" r="2.5"/>
	<circle id="Ellipse_12" class="st1" cx="-869.3" cy="-309.1" r="2.5"/>
	<circle id="Ellipse_13" class="st1" cx="-866.3" cy="-300.7" r="2.5"/>
	<circle id="Ellipse_14" class="st1" cx="-860.8" cy="-292.2" r="2.5"/>
	<circle id="Ellipse_15" class="st1" cx="-860.8" cy="-342.7" r="2.5"/>
	<circle id="Ellipse_16" class="st1" cx="-853.6" cy="-335.4" r="2.1"/>
	<circle id="Ellipse_17" class="st1" cx="-853.6" cy="-299.5" r="2.1"/>
</g>
<g>
	<path class="st1" d="M134.4,53.4h-14v13.5h-3.6V53.4h-14.2v-3.8h14.2V36.1h3.6v13.5h14V53.4z"/>
</g>
</svg>
