<svg xmlns="http://www.w3.org/2000/svg" width="126.339" height="29.164" viewBox="0 0 126.339 29.164">
  <g id="Group_99" data-name="Group 99" transform="translate(-1029.176 -370.192)">
    <g id="Group_97" data-name="Group 97" transform="translate(1079.333 371.817)">
      <path id="Path_580" data-name="Path 580" d="M2.49.13A1.843,1.843,0,0,0,4.27-.98,1.825,1.825,0,0,0,6.05.13a1.928,1.928,0,0,0,2-2.18V-4.94H7.38v2.89C7.38-1,6.8-.49,6-.49A1.37,1.37,0,0,1,4.61-2.05V-4.94H3.94v2.89A1.377,1.377,0,0,1,2.54-.49c-.8,0-1.38-.51-1.38-1.56V-4.94H.49v2.89A1.928,1.928,0,0,0,2.49.13ZM9.55-5.9a.5.5,0,0,0,.51-.51.5.5,0,0,0-.51-.51.5.5,0,0,0-.51.51A.5.5,0,0,0,9.55-5.9ZM9.22,0h.67V-4.94H9.22Zm1.83,0h.67V-2.58a1.669,1.669,0,0,1,1.77-1.87,1.669,1.669,0,0,1,1.77,1.87V0h.67V-2.58a2.259,2.259,0,0,0-2.44-2.49,2.259,2.259,0,0,0-2.44,2.49Zm5.86,0h.67V-2.58a1.669,1.669,0,0,1,1.77-1.87,1.669,1.669,0,0,1,1.77,1.87V0h.67V-2.58a2.259,2.259,0,0,0-2.44-2.49,2.259,2.259,0,0,0-2.44,2.49Zm8.32.13a2.537,2.537,0,0,0,2.66-2.6,2.537,2.537,0,0,0-2.66-2.6,2.537,2.537,0,0,0-2.66,2.6A2.537,2.537,0,0,0,25.23.13Zm0-.62a1.9,1.9,0,0,1-1.98-1.98,1.9,1.9,0,0,1,1.98-1.98,1.9,1.9,0,0,1,1.98,1.98A1.9,1.9,0,0,1,25.23-.49Zm5.44.62A1.843,1.843,0,0,0,32.45-.98,1.825,1.825,0,0,0,34.23.13a1.928,1.928,0,0,0,2-2.18V-4.94h-.67v2.89c0,1.05-.58,1.56-1.38,1.56a1.37,1.37,0,0,1-1.39-1.56V-4.94h-.67v2.89a1.377,1.377,0,0,1-1.4,1.56c-.8,0-1.38-.51-1.38-1.56V-4.94h-.67v2.89A1.928,1.928,0,0,0,30.67.13Z" transform="translate(-2.078 8.458)" fill="#fff"/>
      <path id="Path_581" data-name="Path 581" d="M3.7.169A2.836,2.836,0,0,0,6.474-1.586V0H7.28V-3.172A3.276,3.276,0,0,0,3.835-6.591,3.3,3.3,0,0,0,.377-3.172,3.226,3.226,0,0,0,3.7.169Zm.13-.806A2.471,2.471,0,0,1,1.261-3.211,2.471,2.471,0,0,1,3.835-5.785,2.471,2.471,0,0,1,6.409-3.211,2.471,2.471,0,0,1,3.835-.637Zm7.93.806A3.265,3.265,0,0,0,15.2-3.25V-9.23h-.871v4.186a2.889,2.889,0,0,0-2.7-1.547A3.238,3.238,0,0,0,8.294-3.237,3.308,3.308,0,0,0,11.765.169Zm-.013-.806A2.471,2.471,0,0,1,9.178-3.211a2.471,2.471,0,0,1,2.574-2.574,2.464,2.464,0,0,1,2.574,2.574A2.464,2.464,0,0,1,11.752-.637ZM16.471,0h.871V-3.757c0-1.365.754-2.028,1.794-2.028a1.79,1.79,0,0,1,1.82,2.028V0h.871V-3.757a1.781,1.781,0,0,1,1.807-2.028c1.04,0,1.794.663,1.794,2.028V0H26.3V-3.757a2.507,2.507,0,0,0-2.6-2.834,2.372,2.372,0,0,0-2.314,1.443,2.4,2.4,0,0,0-2.314-1.443,2.507,2.507,0,0,0-2.6,2.834ZM28.249-7.67a.65.65,0,0,0,.663-.663A.65.65,0,0,0,28.249-9a.65.65,0,0,0-.663.663A.65.65,0,0,0,28.249-7.67ZM27.82,0h.871V-6.422H27.82ZM30.2,0h.871V-3.354a2.17,2.17,0,0,1,2.3-2.431,2.17,2.17,0,0,1,2.3,2.431V0h.871V-3.354a2.937,2.937,0,0,0-3.172-3.237A2.937,2.937,0,0,0,30.2-3.354ZM41.275,2.743h.871V-1.378A2.889,2.889,0,0,0,44.85.169a3.238,3.238,0,0,0,3.328-3.354,3.308,3.308,0,0,0-3.471-3.406,3.265,3.265,0,0,0-3.432,3.419ZM44.72-.637a2.464,2.464,0,0,1-2.574-2.574A2.464,2.464,0,0,1,44.72-5.785a2.471,2.471,0,0,1,2.574,2.574A2.471,2.471,0,0,1,44.72-.637Zm7.67.806a3.3,3.3,0,0,0,3.458-3.38,3.3,3.3,0,0,0-3.458-3.38,3.3,3.3,0,0,0-3.458,3.38A3.3,3.3,0,0,0,52.39.169Zm0-.806a2.471,2.471,0,0,1-2.574-2.574A2.471,2.471,0,0,1,52.39-5.785a2.471,2.471,0,0,1,2.574,2.574A2.471,2.471,0,0,1,52.39-.637ZM56.862,0h.871V-3.848a1.7,1.7,0,0,1,1.833-1.937A1.7,1.7,0,0,1,61.4-3.848v.091h.858v-.078a2.48,2.48,0,0,0-2.691-2.756,2.486,2.486,0,0,0-2.7,2.743Zm8.775.169a2.3,2.3,0,0,0,2.5-2.535v-.143h-.845v.143A1.529,1.529,0,0,1,65.637-.637a1.529,1.529,0,0,1-1.651-1.729V-5.629h3.783v-.793H63.986V-8.7h-.871v6.331A2.314,2.314,0,0,0,65.637.169Zm6.656,0a2.836,2.836,0,0,0,2.769-1.755V0h.806V-3.172a3.276,3.276,0,0,0-3.445-3.419,3.3,3.3,0,0,0-3.458,3.419A3.226,3.226,0,0,0,72.293.169Zm.13-.806a2.471,2.471,0,0,1-2.574-2.574,2.471,2.471,0,0,1,2.574-2.574A2.471,2.471,0,0,1,75-3.211,2.471,2.471,0,0,1,72.423-.637ZM77.389,0h.871V-9.23h-.871Z" transform="translate(-2.078 23.458)" fill="#fff"/>
    </g>
    <g id="Group_98" data-name="Group 98" transform="translate(1029.176 370.192)">
      <path id="Path_6" data-name="Path 6" d="M1138.534,370.581a1.331,1.331,0,0,0-.06,1.818,18.781,18.781,0,0,1-.013,24.743,1.331,1.331,0,0,0,.059,1.819l.007.007a1.335,1.335,0,0,0,1.949-.07,21.456,21.456,0,0,0,.008-28.246,1.335,1.335,0,0,0-1.95-.07Z" transform="translate(-1102.875 -370.192)" fill="#fff"/>
      <path id="Path_7" data-name="Path 7" d="M1129.79,392.689a13.354,13.354,0,0,1-3.113,8.59,1.343,1.343,0,0,0,.085,1.81h0a1.345,1.345,0,0,0,1.982-.084,16.1,16.1,0,0,0,.017-20.61,1.345,1.345,0,0,0-1.983-.085h0a1.343,1.343,0,0,0-.087,1.808A13.353,13.353,0,0,1,1129.79,392.689Z" transform="translate(-1094.919 -378.121)" fill="#fff"/>
      <circle id="Ellipse_6" data-name="Ellipse 6" cx="1.34" cy="1.34" r="1.34" transform="translate(0 13.247)" fill="#fff"/>
      <circle id="Ellipse_7" data-name="Ellipse 7" cx="1.113" cy="1.113" r="1.113" transform="translate(5.602 13.491)" fill="#fff"/>
      <circle id="Ellipse_8" data-name="Ellipse 8" cx="1.113" cy="1.113" r="1.113" transform="translate(6.33 8.787)" fill="#fff"/>
      <circle id="Ellipse_9" data-name="Ellipse 9" cx="1.113" cy="1.113" r="1.113" transform="translate(6.33 18.196)" fill="#fff"/>
      <path id="Path_8" data-name="Path 8" d="M1079.874,394.1h0a1.331,1.331,0,0,0-.131,1.736,8.07,8.07,0,0,1,1.117,7.6.51.51,0,0,1-.84.184l-5.907-5.907a1.189,1.189,0,0,0-1.681,0l-5.9,5.89a.51.51,0,0,1-.84-.187,8.068,8.068,0,0,1,1.146-7.572,1.331,1.331,0,0,0-.129-1.74h0a1.333,1.333,0,0,0-2.005.13l-.04.054a1.03,1.03,0,0,0,0,1.193.927.927,0,0,1-.645,1.432l-.014,0a1.249,1.249,0,0,0-1.068.9q-.1.378-.182.767a1.323,1.323,0,0,0,.56,1.36l.018.012a.872.872,0,0,1,.344.457.933.933,0,0,1-.462,1.117l-.027.012a.759.759,0,0,0-.51.821q.082.522.213,1.027a1.507,1.507,0,0,0,1.243,1.1l.015,0a.927.927,0,0,1,.6,1.435,1.1,1.1,0,0,0,.013,1.3l.029.038a1.19,1.19,0,0,0,1.784.113l6.332-6.35a.511.511,0,0,1,.722,0l6.352,6.348a1.192,1.192,0,0,0,1.784-.116,10.734,10.734,0,0,0,.118-13.022A1.333,1.333,0,0,0,1079.874,394.1Z" transform="translate(-1051.828 -386.101)" fill="#fff"/>
      <circle id="Ellipse_10" data-name="Ellipse 10" cx="1.34" cy="1.34" r="1.34" transform="translate(0.483 8.837)" fill="#fff"/>
      <circle id="Ellipse_11" data-name="Ellipse 11" cx="1.34" cy="1.34" r="1.34" transform="translate(2.068 4.427)" fill="#fff"/>
      <circle id="Ellipse_12" data-name="Ellipse 12" cx="1.34" cy="1.34" r="1.34" transform="translate(0.483 17.657)" fill="#fff"/>
      <circle id="Ellipse_13" data-name="Ellipse 13" cx="1.34" cy="1.34" r="1.34" transform="translate(2.068 22.067)" fill="#fff"/>
      <circle id="Ellipse_14" data-name="Ellipse 14" cx="1.34" cy="1.34" r="1.34" transform="translate(4.949 26.477)" fill="#fff"/>
      <circle id="Ellipse_15" data-name="Ellipse 15" cx="1.34" cy="1.34" r="1.34" transform="translate(4.949 0.017)" fill="#fff"/>
      <circle id="Ellipse_16" data-name="Ellipse 16" cx="1.113" cy="1.113" r="1.113" transform="translate(8.978 4.082)" fill="#fff"/>
      <circle id="Ellipse_17" data-name="Ellipse 17" cx="1.113" cy="1.113" r="1.113" transform="translate(8.978 22.901)" fill="#fff"/>
    </g>
  </g>
</svg>
