<?xml version="1.0" encoding="utf-8"?>
<!-- Generator: Adobe Illustrator 25.2.1, SVG Export Plug-In . SVG Version: 6.00 Build 0)  -->
<svg version="1.1" id="Layer_1" xmlns="http://www.w3.org/2000/svg" xmlns:xlink="http://www.w3.org/1999/xlink" x="0px" y="0px"
	 viewBox="0 0 145.2 35" style="enable-background:new 0 0 145.2 35;" xml:space="preserve">
<style type="text/css">
	.st0{enable-background:new    ;}
	.st1{fill:#3C1053;}
</style>
<g class="st0">
	<path class="st1" d="M61.3,18.2v-6.6h1.5v6.6c0,2.4,1.3,3.6,3.2,3.6c1.8,0,3.2-1.2,3.2-3.6v-6.6h1.5v6.6c0,2.4,1.4,3.6,3.2,3.6
		c1.8,0,3.2-1.2,3.2-3.6v-6.6h1.5v6.6c0,3.4-2,5-4.6,5c-1.9,0-3.4-0.9-4.1-2.6c-0.7,1.7-2.3,2.6-4.1,2.6
		C63.3,23.2,61.3,21.6,61.3,18.2z"/>
	<path class="st1" d="M81,8.2C81,7.5,81.5,7,82.2,7s1.2,0.5,1.2,1.2c0,0.7-0.5,1.2-1.2,1.2S81,8.9,81,8.2z M81.4,11.6h1.5V23h-1.5
		V11.6z"/>
	<path class="st1" d="M85.6,17c0-3.8,2.3-5.7,5.6-5.7c3.4,0,5.6,2,5.6,5.7V23h-1.5V17c0-2.8-1.6-4.3-4.1-4.3c-2.5,0-4.1,1.5-4.1,4.3
		V23h-1.5V17z"/>
	<path class="st1" d="M99.1,17c0-3.8,2.3-5.7,5.6-5.7s5.6,2,5.6,5.7V23h-1.5V17c0-2.8-1.6-4.3-4.1-4.3s-4.1,1.5-4.1,4.3V23h-1.5V17z
		"/>
	<path class="st1" d="M112.1,17.3c0-3.4,2.5-6,6.1-6c3.6,0,6.1,2.5,6.1,6c0,3.4-2.5,6-6.1,6C114.6,23.2,112.1,20.7,112.1,17.3z
		 M122.8,17.3c0-2.6-1.8-4.6-4.6-4.6c-2.7,0-4.6,1.9-4.6,4.6c0,2.6,1.8,4.6,4.6,4.6C120.9,21.8,122.8,19.9,122.8,17.3z"/>
	<path class="st1" d="M126.1,18.2v-6.6h1.5v6.6c0,2.4,1.3,3.6,3.2,3.6c1.8,0,3.2-1.2,3.2-3.6v-6.6h1.5v6.6c0,2.4,1.4,3.6,3.2,3.6
		s3.2-1.2,3.2-3.6v-6.6h1.5v6.6c0,3.4-2,5-4.6,5c-1.9,0-3.4-0.9-4.1-2.6c-0.7,1.7-2.3,2.6-4.1,2.6C128.1,23.2,126.1,21.6,126.1,18.2
		z"/>
</g>
<g id="Group_98" transform="translate(1029.176 370.192)">
	<path id="Path_6" class="st1" d="M-986.4-369.7c-0.6,0.6-0.6,1.5-0.1,2.2c7.4,8.5,7.4,21.2,0,29.7c-0.6,0.6-0.5,1.6,0.1,2.2l0,0
		c0.6,0.6,1.6,0.6,2.3,0c0,0,0.1-0.1,0.1-0.1c8.5-9.7,8.5-24.2,0-33.9C-984.6-370.3-985.6-370.4-986.4-369.7
		C-986.3-369.8-986.4-369.8-986.4-369.7L-986.4-369.7z"/>
	<path id="Path_7" class="st1" d="M-987.3-352.7c0,3.8-1.3,7.4-3.7,10.3c-0.5,0.6-0.5,1.6,0.1,2.2l0,0c0.6,0.6,1.7,0.6,2.3,0
		c0,0,0.1-0.1,0.1-0.1c6-7.2,6-17.6,0-24.7c-0.6-0.7-1.6-0.8-2.3-0.2c0,0-0.1,0.1-0.1,0.1l0,0c-0.6,0.6-0.6,1.5-0.1,2.2
		C-988.6-360.1-987.3-356.5-987.3-352.7z"/>
	<circle id="Ellipse_6" class="st1" cx="-1027.6" cy="-352.7" r="1.6"/>
	<circle id="Ellipse_7" class="st1" cx="-1021.1" cy="-352.7" r="1.3"/>
	<circle id="Ellipse_8" class="st1" cx="-1020.2" cy="-358.3" r="1.3"/>
	<circle id="Ellipse_9" class="st1" cx="-1020.2" cy="-347" r="1.3"/>
	<path id="Path_8" class="st1" d="M-995.5-360.6L-995.5-360.6c-0.6,0.6-0.6,1.4-0.2,2.1c2,2.6,2.5,6.1,1.3,9.1
		c-0.1,0.3-0.5,0.5-0.8,0.4c-0.1,0-0.2-0.1-0.2-0.1l-7.1-7.1c-0.6-0.6-1.5-0.6-2,0l-7.1,7.1c-0.2,0.2-0.6,0.2-0.9,0
		c-0.1-0.1-0.1-0.1-0.1-0.2c-1.1-3.1-0.6-6.5,1.4-9.1c0.5-0.6,0.4-1.5-0.2-2.1l0,0c-0.6-0.6-1.6-0.6-2.3,0c-0.1,0.1-0.1,0.1-0.1,0.2
		l0,0.1c-0.3,0.4-0.3,1,0,1.4c0.3,0.5,0.2,1.2-0.3,1.5c-0.1,0.1-0.3,0.2-0.5,0.2h0c-0.6,0.1-1.1,0.5-1.3,1.1
		c-0.1,0.3-0.2,0.6-0.2,0.9c-0.1,0.6,0.1,1.3,0.7,1.6l0,0c0.2,0.1,0.3,0.3,0.4,0.5c0.2,0.5-0.1,1.1-0.6,1.3l0,0
		c-0.4,0.1-0.7,0.6-0.6,1c0.1,0.4,0.2,0.8,0.3,1.2c0.2,0.7,0.8,1.2,1.5,1.3h0c0.6,0.1,1,0.7,0.9,1.3c0,0.2-0.1,0.3-0.2,0.4
		c-0.3,0.5-0.3,1.1,0,1.6l0,0c0.5,0.6,1.4,0.7,2,0.3c0,0,0.1-0.1,0.1-0.1l7.6-7.6c0.2-0.2,0.6-0.2,0.9,0l7.6,7.6
		c0.6,0.6,1.5,0.6,2,0c0,0,0.1-0.1,0.1-0.1c3.6-4.6,3.6-11,0.1-15.6c-0.5-0.7-1.5-0.8-2.2-0.3C-995.4-360.7-995.5-360.6-995.5-360.6
		z"/>
	<circle id="Ellipse_10" class="st1" cx="-1027" cy="-358" r="1.6"/>
	<circle id="Ellipse_11" class="st1" cx="-1025.1" cy="-363.3" r="1.6"/>
	<circle id="Ellipse_12" class="st1" cx="-1027" cy="-347.4" r="1.6"/>
	<circle id="Ellipse_13" class="st1" cx="-1025.1" cy="-342.1" r="1.6"/>
	<circle id="Ellipse_14" class="st1" cx="-1021.6" cy="-336.8" r="1.6"/>
	<circle id="Ellipse_15" class="st1" cx="-1021.6" cy="-368.6" r="1.6"/>
	<circle id="Ellipse_16" class="st1" cx="-1017.1" cy="-364" r="1.3"/>
	<circle id="Ellipse_17" class="st1" cx="-1017.1" cy="-341.4" r="1.3"/>
</g>
</svg>
